HIERARCHY
ROOT Hips
{
	OFFSET -0.001795 -0.223333 0.028219
	CHANNELS 6 Xposition Yposition Zposition Zrotation Yrotation Xrotation 
	JOINT LeftUpLeg
	{
		OFFSET 0.069520 -0.091406 -0.006815
		CHANNELS 3 Zrotation Yrotation Xrotation
		JOINT LeftLeg
		{
			OFFSET 0.034277 -0.375199 -0.004496
			CHANNELS 3 Zrotation Yrotation Xrotation
			JOINT LeftFoot
			{
				OFFSET -0.013596 -0.397961 -0.043693
				CHANNELS 3 Zrotation Yrotation Xrotation
				JOINT LeftToe
				{
					OFFSET 0.026358 -0.055791 0.119288
					CHANNELS 3 Zrotation Yrotation Xrotation
					End Site
					{
						OFFSET 0.000000 0.000000 0.000000
					}
				}
			}
		}
	}
	JOINT RightUpLeg
	{
		OFFSET -0.067670 -0.090522 -0.004320
		CHANNELS 3 Zrotation Yrotation Xrotation
		JOINT RightLeg
		{
			OFFSET -0.038290 -0.382569 -0.008850
			CHANNELS 3 Zrotation Yrotation Xrotation
			JOINT RightFoot
			{
				OFFSET 0.015774 -0.398415 -0.042312
				CHANNELS 3 Zrotation Yrotation Xrotation
				JOINT RightToe
				{
					OFFSET -0.025372 -0.048144 0.123348
					CHANNELS 3 Zrotation Yrotation Xrotation
					End Site
					{
						OFFSET 0.000000 0.000000 0.000000
					}
				}
			}
		}
	}
	JOINT Spine
	{
		OFFSET -0.002533 0.108963 -0.026696
		CHANNELS 3 Zrotation Yrotation Xrotation
		JOINT Spine1
		{
			OFFSET 0.005487 0.135180 0.001092
			CHANNELS 3 Zrotation Yrotation Xrotation
			JOINT Spine2
			{
				OFFSET 0.001457 0.052922 0.025425
				CHANNELS 3 Zrotation Yrotation Xrotation
				JOINT Neck
				{
					OFFSET -0.002778 0.213870 -0.042857
					CHANNELS 3 Zrotation Yrotation Xrotation
					JOINT Head
					{
						OFFSET 0.005152 0.064970 0.051349
						CHANNELS 3 Zrotation Yrotation Xrotation
						End Site
						{
							OFFSET 0.000000 0.000000 0.000000
						}
					}
				}
				JOINT LeftShoulder
				{
					OFFSET 0.078845 0.121749 -0.034090
					CHANNELS 3 Zrotation Yrotation Xrotation
					JOINT LeftArm
					{
						OFFSET 0.090977 0.030469 -0.008868
						CHANNELS 3 Zrotation Yrotation Xrotation
						JOINT LeftForeArm
						{
							OFFSET 0.259612 -0.012772 -0.027456
							CHANNELS 3 Zrotation Yrotation Xrotation
							JOINT LeftHand
							{
								OFFSET 0.249234 0.008986 -0.001171
								CHANNELS 3 Zrotation Yrotation Xrotation
								End Site
								{
									OFFSET 0.000000 0.000000 0.000000
								}
							}
						}
					}
				}
				JOINT RightShoulder
				{
					OFFSET -0.081759 0.118833 -0.038615
					CHANNELS 3 Zrotation Yrotation Xrotation
					JOINT RightArm
					{
						OFFSET -0.096012 0.032551 -0.009143
						CHANNELS 3 Zrotation Yrotation Xrotation
						JOINT RightForeArm
						{
							OFFSET -0.253742 -0.013329 -0.021401
							CHANNELS 3 Zrotation Yrotation Xrotation
							JOINT RightHand
							{
								OFFSET -0.255298 0.007772 -0.005559
								CHANNELS 3 Zrotation Yrotation Xrotation
								End Site
								{
									OFFSET 0.000000 0.000000 0.000000
								}
							}
						}
					}
				}
			}
		}
	}
}
MOTION
Frames: 12
Frame Time: 0.050000
0.000000 0.936251 0.000000 0.316693 -6.588744 3.742622 2.165446 0.009852 0.418785 -2.066378 0.336486 -5.081641 5.207375 12.074541 8.469473 0.000000 0.000000 0.000000 -0.902183 -0.064557 1.194507 0.580201 -0.085962 -0.964724 -1.754113 -6.613722 4.983448 0.000000 0.000000 0.000000 5.161818 0.128011 -2.532439 -2.478273 1.149732 -1.716116 -1.556766 3.716662 6.381936 5.223326 -1.934289 -16.594544 0.000000 0.000000 0.000000 -20.965504 -1.205659 -1.426551 -35.311858 2.264716 -4.757611 -2.592566 -22.065868 1.319086 0.000000 0.000000 0.000000 17.891518 -3.213953 -3.231182 40.314811 -0.651612 -4.171052 2.558674 26.337993 1.450229 0.000000 0.000000 0.000000 
-0.002735 0.934601 0.003082 0.069838 -6.572703 4.151578 2.196028 0.056798 1.066035 -1.361593 0.321499 -6.569875 5.217430 12.083389 8.349004 0.000000 0.000000 0.000000 0.213544 -0.099273 0.894821 -0.647323 0.025013 -0.748754 -1.940578 -6.757644 4.336256 0.000000 0.000000 0.000000 5.695922 0.189527 -3.211432 -2.686924 1.256520 -1.204313 -2.290580 4.458915 5.691761 6.091171 -2.113545 -18.238760 0.000000 0.000000 0.000000 -19.497651 -1.093885 -1.611707 -36.471534 1.946652 -4.721258 -2.855103 -22.451557 1.355620 0.000000 0.000000 0.000000 17.554042 -5.145732 -4.008834 41.542730 -2.156734 -4.773454 3.440386 28.040159 1.827390 0.000000 0.000000 0.000000 
-0.005438 0.934326 0.006029 0.366515 -6.119529 3.913452 2.212926 0.036682 0.816664 -1.590915 0.306000 -5.434383 5.060020 11.790011 7.956315 0.000000 0.000000 0.000000 0.360645 -0.098583 0.813355 -1.069696 0.114381 0.294220 -2.279499 -7.302465 3.872524 0.000000 0.000000 0.000000 6.004201 0.157228 -2.827176 -2.464672 1.121854 -3.076760 -2.994981 4.793183 7.306868 6.138519 -2.128819 -18.154562 0.000000 0.000000 0.000000 -19.374183 -1.582413 -1.429776 -36.942619 2.556554 -5.031592 -3.345142 -22.890468 1.466816 0.000000 0.000000 0.000000 18.228485 -4.190530 -3.418370 41.449113 -2.750226 -5.113984 3.541159 28.757108 1.953224 0.000000 0.000000 0.000000 
-0.008567 0.933939 0.008841 0.654155 -5.867523 3.973291 2.279626 0.038530 0.874253 -1.880052 0.325513 -5.397738 4.916050 11.549237 7.950611 0.000000 0.000000 0.000000 0.550890 -0.134775 1.081350 -1.563421 0.149986 0.066851 -2.446178 -7.576025 3.651340 0.000000 0.000000 0.000000 5.845500 0.189234 -3.191584 -2.533996 1.169342 -2.212997 -3.100095 5.031369 6.321764 6.035638 -1.944581 -18.498848 0.000000 0.000000 0.000000 -19.522451 -1.072598 -1.877290 -37.392385 2.197551 -4.887668 -3.473987 -23.036308 1.476565 0.000000 0.000000 0.000000 18.099001 -4.890711 -3.700711 41.741849 -3.564292 -5.347256 4.015653 29.143690 2.124366 0.000000 0.000000 0.000000 
-0.012029 0.933968 0.011326 0.898617 -5.636173 3.630020 2.191537 0.060019 1.114545 -1.761531 0.305469 -4.916864 4.800641 11.356995 7.925579 0.000000 0.000000 0.000000 0.562074 -0.158637 1.326586 -1.607636 0.187245 0.645837 -2.606987 -7.831502 3.401914 0.000000 0.000000 0.000000 5.633530 0.146287 -2.704521 -2.189869 1.012936 -2.379308 -3.355345 5.509667 6.298781 6.383326 -2.207781 -17.605366 0.000000 0.000000 0.000000 -19.711574 -1.333421 -1.934934 -37.390861 2.205548 -4.839059 -4.573028 -24.385968 1.765647 0.000000 0.000000 0.000000 18.251152 -4.706560 -3.474513 41.372283 -3.708944 -5.382149 4.728229 29.451344 2.364551 0.000000 0.000000 0.000000 
-0.015897 0.933800 0.013623 1.104498 -5.351510 3.422252 2.098367 0.054982 1.026100 -1.496537 0.265727 -4.137290 4.708102 11.192771 7.787484 0.000000 0.000000 0.000000 0.237117 -0.135654 1.273152 -0.893538 0.158857 1.499084 -2.781269 -8.092219 3.071382 0.000000 0.000000 0.000000 5.439473 0.114795 -2.350756 -2.250938 1.046728 -2.063528 -3.080318 5.406006 6.142345 6.327136 -2.073619 -18.264105 0.000000 0.000000 0.000000 -19.922227 -0.951102 -2.177641 -37.976931 1.679076 -4.760530 -4.852577 -25.398354 1.899685 0.000000 0.000000 0.000000 18.025944 -4.318231 -3.241009 41.932515 -3.266354 -5.307304 4.259936 28.971043 2.208375 0.000000 0.000000 0.000000 
-0.020309 0.933265 0.015884 1.321612 -5.193504 3.136812 2.118103 0.046360 0.904133 -1.413571 0.234597 -3.112861 4.692394 11.138808 7.532488 0.000000 0.000000 0.000000 0.104131 -0.141790 1.414990 -0.522361 0.149318 2.136147 -2.925870 -8.253763 2.631048 0.000000 0.000000 0.000000 5.439427 0.069893 -1.806868 -2.159548 1.010079 -1.770730 -3.424576 5.786588 5.972575 6.658420 -2.220909 -18.155189 0.000000 0.000000 0.000000 -20.123224 -0.986220 -2.342598 -38.518001 1.515636 -4.731544 -4.763588 -26.760361 1.947007 0.000000 0.000000 0.000000 18.159580 -3.963081 -2.938097 42.678086 -2.868325 -5.306428 3.942794 29.022099 2.178553 0.000000 0.000000 0.000000 
-0.025270 0.932459 0.018125 1.390474 -5.214771 2.649552 2.308797 -0.031362 -0.132319 -1.322033 0.158135 0.016519 4.912524 11.432766 6.816627 0.000000 0.000000 0.000000 0.289192 -0.194636 1.870200 -0.430583 0.161359 2.607413 -2.999880 -8.237365 2.134845 0.000000 0.000000 0.000000 5.722432 -0.006533 -0.879723 -2.594143 1.209737 -1.823858 -3.108548 5.902193 6.349821 6.602013 -2.149900 -18.454060 0.000000 0.000000 0.000000 -20.685814 -1.060508 -2.377984 -38.958447 1.000122 -4.663340 -4.770028 -28.041209 2.045330 0.000000 0.000000 0.000000 18.564804 -3.510941 -2.709041 43.408835 -2.149824 -5.215061 3.367969 28.724974 2.025279 0.000000 0.000000 0.000000 
-0.030679 0.931689 0.020198 1.332469 -5.052429 2.199436 2.930037 -0.174841 -2.236390 -1.662550 0.128371 4.916249 5.078782 11.649120 6.179228 0.000000 0.000000 0.000000 0.628821 -0.262653 2.376416 -0.256541 0.156416 2.945240 -3.106492 -8.343639 1.764671 0.000000 0.000000 0.000000 5.934924 -0.109845 0.303208 -2.172407 1.020820 -1.576490 -3.463574 6.417122 6.209274 6.649156 -2.088751 -18.515812 0.000000 0.000000 0.000000 -20.864233 -1.590304 -2.315673 -39.842426 0.199014 -4.472558 -4.268738 -28.368601 1.898570 0.000000 0.000000 0.000000 19.186943 -3.522695 -2.601609 44.110660 -1.735370 -5.212390 2.684187 29.183689 1.951735 0.000000 0.000000 0.000000 
-0.036184 0.930017 0.022145 1.202603 -4.185657 1.933662 3.901134 -0.407687 -6.591544 -2.312481 0.198128 13.157381 4.944722 11.408800 6.056729 0.000000 0.000000 0.000000 1.058570 -0.308346 2.577946 0.165392 0.130918 3.585617 -3.523627 -9.122657 1.192453 0.000000 0.000000 0.000000 6.137314 -0.210638 1.379686 -1.859255 0.879106 -1.758083 -3.594263 5.866300 6.827094 6.650324 -2.090599 -18.679161 0.000000 0.000000 0.000000 -21.330054 -1.909971 -2.161887 -40.629368 -0.596863 -4.375999 -3.464103 -29.161053 1.760412 0.000000 0.000000 0.000000 19.636913 -2.819126 -2.245020 44.726139 -0.864502 -5.050560 3.256567 29.134279 2.085280 0.000000 0.000000 0.000000 
-0.041129 0.927781 0.025403 0.809556 -4.848528 1.937545 6.065067 -0.463588 -12.329061 -5.308385 1.310413 23.598874 5.932408 13.390437 8.429327 0.000000 0.000000 0.000000 1.539488 -0.365653 2.855078 0.409723 0.099211 3.527520 -3.366735 -8.450500 0.390860 0.000000 0.000000 0.000000 6.518629 -0.310522 2.339107 -2.241525 1.057650 -1.299745 -3.011118 6.890580 6.708023 6.825560 -2.012801 -19.399707 0.000000 0.000000 0.000000 -21.995369 -2.461978 -2.133550 -41.569593 -0.932199 -4.310146 -2.940257 -30.121208 1.637233 0.000000 0.000000 0.000000 19.728187 -2.419075 -1.881615 45.840953 -0.636435 -5.117408 3.981764 29.829838 2.367321 0.000000 0.000000 0.000000 
-0.044980 0.926055 0.031941 0.905287 -4.341982 1.475678 7.193126 -0.445869 -18.047772 -7.941959 2.670309 31.179090 9.023279 18.633970 16.746279 0.000000 0.000000 0.000000 1.353396 -0.419006 3.483354 1.119723 0.031167 4.214421 -3.622310 -8.871228 -0.185867 0.000000 0.000000 0.000000 6.215548 -0.377997 3.250903 -1.766012 0.840012 -1.076269 -2.686512 6.759358 6.870832 6.221888 -1.651335 -19.440347 0.000000 0.000000 0.000000 -23.596933 -2.933222 -2.119764 -41.614232 -0.753487 -4.347214 -2.927527 -30.795121 1.674151 0.000000 0.000000 0.000000 19.931754 -1.930369 -1.595441 45.983415 0.262282 -4.844053 6.350489 29.861173 2.963636 0.000000 0.000000 0.000000 
